{"title":"The Hit List (2011) DvdRip [Xvid] {1337x}-X","uid":6384687,"size":735180800,"categoryP":"video","categoryS":"movies","magnet":"?xt=urn:btih:acc5a66a62b3237816d539351d96a3637c4a4ef2&amp;dn=The+Hit+List+%282011%29+DvdRip+%5BXvid%5D+%7B1337x%7D-X&amp;tr=udp%3A%2F%2Ftracker.openbittorrent.com%3A80&amp;tr=udp%3A%2F%2Fopen.demonii.com%3A1337&amp;tr=udp%3A%2F%2Ftracker.coppersurfer.tk%3A6969&amp;tr=udp%3A%2F%2Fexodus.desync.com%3A6969","seeders":1,"leechers":0,"uploader":"qwersd","files":-1,"time":1305157937,"description":"Be careful what you wish for. After having the worst day of his life Allan (Hauser) meets Jonas (Gooding Jr) at a bar. After talking to him Jonas says he can help Allan with his problems. Thinking it's a joke Allan gives him the name of five people he wants dead. When they begin to wind up dead Allan is the only one who can stop it.\n &lt;a href=&quot;\nhttp://leetleech.org/images/14414319053094096497.jpg&quot; rel=&quot;nofollow&quot; target=&quot;_NEW&quot;&gt;\nhttp://leetleech.org/images/14414319053094096497.jpg&lt;/a&gt;\n\nVideo\nID : 0\nFormat : MPEG-4 Visual\nFormat profile : Advanced Simple@L5\nFormat settings, BVOP : Yes\nFormat settings, QPel : No\nFormat settings, GMC : No warppoints\nFormat settings, Matrix : Default (H.263)\nMuxing mode : Packed bitstream\nCodec ID : XVID\nCodec ID/Hint : XviD\nDuration : 1h 30mn\nBit rate : 971 Kbps\nWidth : 656 pixels\nHeight : 352 pixels\nDisplay aspect ratio : 1.864\nFrame rate : 23.976 fps\nColor space : YUV\nChroma subsampling : 4:2:0\nBit depth : 8 bits\nScan type : Progressive\nBits/(Pixel*Frame) : 0.175\nStream size : 626 MiB (89%)\nWriting library : XviD 57\n\nAudio\nID : 1\nFormat : MPEG Audio\nFormat version : Version 1\nFormat profile : Layer 3\nMode : Joint stereo\nMode extension : MS Stereo\nCodec ID : 55\nCodec ID/Hint : MP3\nDuration : 1h 30mn\nBit rate mode : Variable\nBit rate : 103 Kbps\nNominal bit rate : 112 Kbps\nChannel(s) : 2 channels\nSampling rate : 48.0 KHz\nStream size : 66.6 MiB (9%)\nAlignment : Aligned on interleaves\nInterleave, duration : 24 ms (0.58 video frame)\nInterleave, preload duration : 178 ms\nWriting library : LAME3.97 \nEncoding settings : -m j -V 4 -q 2 -lowpass 16 --abr 112\n\nIMDB &lt;a href=&quot;\nhttp://www.imdb.com/title/tt1575694/&quot; rel=&quot;nofollow&quot; target=&quot;_NEW&quot;&gt;\nhttp://www.imdb.com/title/tt1575694/&lt;/a&gt;\n\nShout out to noir and all my friends @ 1337x.org and extratorrent","torrent":{"xt":"urn:btih:acc5a66a62b3237816d539351d96a3637c4a4ef2","amp;dn":"The+Hit+List+%282011%29+DvdRip+%5BXvid%5D+%7B1337x%7D-X","amp;tr":["udp%3A%2F%2Ftracker.openbittorrent.com%3A80","udp%3A%2F%2Fopen.demonii.com%3A1337","udp%3A%2F%2Ftracker.coppersurfer.tk%3A6969","udp%3A%2F%2Fexodus.desync.com%3A6969"],"infoHash":"acc5a66a62b3237816d539351d96a3637c4a4ef2","infoHashBuffer":{"type":"Buffer","data":[172,197,166,106,98,179,35,120,22,213,57,53,29,150,163,99,124,74,78,242]},"announce":[],"urlList":[]}}